<?xml version="1.0" standalone="no"?>
<!DOCTYPE svg PUBLIC "-//W3C//DTD SVG 20010904//EN" "http://www.w3.org/TR/2001/REC-SVG-20010904/DTD/svg10.dtd">
<!-- Created using Krita: https://krita.org -->
<svg xmlns="http://www.w3.org/2000/svg" 
    xmlns:xlink="http://www.w3.org/1999/xlink"
    xmlns:krita="http://krita.org/namespaces/svg/krita"
    xmlns:sodipodi="http://sodipodi.sourceforge.net/DTD/sodipodi-0.dtd"
    width="1474.56pt"
    height="1474.56pt"
    viewBox="0 0 1474.56 1474.56">
<defs/>
<path id="shape0" transform="translate(1.44, 110.159992972445)" fill="#ffffff" fill-rule="evenodd" stroke="#ffffff" stroke-width="1" stroke-linecap="square" stroke-linejoin="bevel" d="M1474.56 0C1225.06 119.93 977.647 220.657 731.427 360.944C487.718 504.126 260.227 684.673 0 869.4C106.939 821.338 218.037 764.647 328.492 710.434C456.586 649.478 496.272 621.246 507.15 623.43C518.028 625.614 519.424 627.39 526.81 639.89C531.439 661.827 533.959 729.793 529.2 786.6C525.605 876.181 510.408 917.447 508.41 986.22C508.046 1045.97 525.499 1067.03 547.65 1070.82C579.29 1070.23 589.09 1043.6 589.41 981.36C589.226 924.011 574.87 853.2 573.03 787.59C570.04 731.156 565.531 675.552 575.473 631.292C578.505 620.804 580.163 615.396 586.35 605.43C592.536 595.464 654.225 544.78 679.23 542.16C704.235 539.54 710.689 552.166 717.833 563.372C737.872 593.352 732.199 727.745 729.81 835.83C727.421 943.914 713.97 1110.8 715.23 1171.8C716.49 1232.8 739.853 1261.16 760.05 1260.54C780.247 1259.92 795.87 1230.49 798.84 1176.84C801.81 1123.19 774.649 911.366 774 837C772.158 775.936 764.402 630.358 780.67 555.779C787.708 520.238 800.244 494.578 818.28 478.8C842.906 458.421 868.395 437.145 889.92 432C912.827 428.406 917.522 442.387 923.172 460.221C936.112 538.94 932.286 605.215 929.52 679.68L920.88 870.48C923.059 904.728 931.694 927.613 951.84 930.24C982.276 930.585 984.138 898.954 984.96 866.16L970.56 671.76C964.41 601.013 963.34 533.578 966.79 451.999C967.813 412.689 983.309 384.585 996.84 371.52C1057.4 314.707 1106.6 278.575 1165.85 233.029C1267.03 155.264 1374.13 78.0953 1474.56 0Z" sodipodi:nodetypes="cccczccccccczzczzzzcccccccccccccc"/>
</svg>
