<?xml version="1.0" standalone="no"?>
<!DOCTYPE svg PUBLIC "-//W3C//DTD SVG 20010904//EN" "http://www.w3.org/TR/2001/REC-SVG-20010904/DTD/svg10.dtd">
<!-- Created using Krita: https://krita.org -->
<svg xmlns="http://www.w3.org/2000/svg" 
    xmlns:xlink="http://www.w3.org/1999/xlink"
    xmlns:krita="http://krita.org/namespaces/svg/krita"
    xmlns:sodipodi="http://sodipodi.sourceforge.net/DTD/sodipodi-0.dtd"
    width="1474.56pt"
    height="1474.56pt"
    viewBox="0 0 1474.56 1474.56">
<defs/>
<path id="shape0" transform="translate(1.42167635703547, 271.532236611383)" fill="#ffffff" fill-rule="evenodd" stroke="#ffffff" stroke-width="1" stroke-linecap="square" stroke-linejoin="bevel" d="M1356.71 937.832C1426.46 778.492 1476.79 674.651 1474.58 517.228C1474.87 351.654 1440.38 174.47 1258.94 66.8678C1077.5 -40.7341 898.315 -6.84447 757.458 86.3078C616.602 179.46 494.848 424.511 331.668 428.668C211.3 429.444 152.659 380.649 134.568 305.728C118.336 223.439 170.74 143.004 257.958 138.508C345.177 134.011 369.992 197.752 380.898 232.603C402.524 114.641 321.664 69.3827 238.72 70.8157C130.86 77.2628 -1.79174 163.185 0.0183235 333.268C-0.303514 515.687 183.087 624.292 343.25 623.866C587.634 618.241 693.002 471.782 806.778 370.348C920.554 268.914 1001.65 247.287 1126.69 267.709C1259.31 301.821 1340.97 358.379 1384.22 557.188C1404.39 703.648 1376.27 799.449 1356.71 937.832Z" sodipodi:nodetypes="cczzcczcccczccc"/><path id="shape1" transform="translate(4.31999998793441, 690.105954337321)" fill="#ffffff" fill-rule="evenodd" stroke="#ffffff" stroke-width="1" stroke-linecap="square" stroke-linejoin="bevel" d="M1206.63 516.839C1257.08 299.906 1258.16 158.261 1209.87 91.904C1137.44 -7.63224 1052.45 -15.1313 952.92 16.934C853.386 48.9992 819.008 121.708 636.48 259.214C453.952 396.72 247.937 343.84 143.64 282.974C74.1084 242.397 26.2284 187.677 0 118.814C12.479 207.394 54.779 283.174 126.9 346.154C239.019 436.697 388.402 498.476 578.7 436.514C690.758 396.421 771.948 317.333 833.151 271.187C899.322 221.743 938.993 170.135 991.62 169.574C1052.91 169.011 1099.53 222.381 1057.5 310.244C1015.47 398.107 976.545 421.349 980.325 516.929Z" sodipodi:nodetypes="czzzzccccczcc"/>
</svg>
