<?xml version="1.0" standalone="no"?>
<!DOCTYPE svg PUBLIC "-//W3C//DTD SVG 20010904//EN" "http://www.w3.org/TR/2001/REC-SVG-20010904/DTD/svg10.dtd">
<!-- Created using Krita: https://krita.org -->
<svg xmlns="http://www.w3.org/2000/svg" 
    xmlns:xlink="http://www.w3.org/1999/xlink"
    xmlns:krita="http://krita.org/namespaces/svg/krita"
    xmlns:sodipodi="http://sodipodi.sourceforge.net/DTD/sodipodi-0.dtd"
    width="1474.56pt"
    height="1474.56pt"
    viewBox="0 0 1474.56 1474.56">
<defs/>
<path id="shape0" transform="translate(1.44, -5.6843418860808e-14)" fill="#ffffff" fill-rule="evenodd" stroke="#ffffff" stroke-width="0.72" stroke-linecap="square" stroke-linejoin="bevel" d="M786.847 1376.95C832.893 1373.58 877.512 1365.21 920.677 1351.75C900.652 1346.61 878.866 1340.39 861.686 1317.51C844.506 1294.64 839.916 1272.32 842.435 1248.66C851.359 1181.65 898.616 1118.06 958.613 1078.94C1018.61 1039.82 1067.2 1028.99 1127.49 1039.38C1161.86 1046.93 1178.24 1065.03 1188.63 1083.01C1199.01 1101 1205.06 1126.05 1193.71 1159.5C1189.61 1176.86 1172.02 1198.83 1140.95 1225.39L1260.65 1260.54L1223.62 1150.47C1325.59 1032.12 1352.34 914.864 1366.13 797.94L1474.56 737.28L1363.69 680.456C1350.06 539.784 1294.4 434.804 1221.5 343.845L1260.43 218.43L1132.94 257.13C1046.11 191.792 950.129 134.58 803.509 122.383L737.252 0C704.768 62.4757 683.481 103.27 673.391 122.383C526.771 134.58 429.894 191.792 343.057 257.13L215.572 218.43L254.497 343.845C181.595 434.804 125.938 539.784 112.309 680.456L0 737.19L109.867 797.94C123.662 914.864 150.409 1032.12 252.382 1150.47L215.752 1260.58L335.047 1225.39C303.981 1198.83 286.395 1176.86 282.288 1159.5C270.943 1126.05 276.99 1101 287.375 1083.01C297.76 1065.03 314.137 1046.93 348.514 1039.38C408.801 1028.99 457.389 1039.82 517.387 1078.94C577.384 1118.06 624.641 1181.65 633.565 1248.66C636.084 1272.32 631.494 1294.64 614.314 1317.51C597.133 1340.39 575.348 1346.61 555.322 1351.75C598.488 1365.21 643.107 1373.58 689.152 1376.95L737.331 1474.56M771.187 732.802C770.345 548.325 919.432 461.075 1033.06 461.801C1150.18 462.55 1296.71 546.584 1298.65 733.622C1293.39 907.339 1152.39 997.544 1030.27 996.752C907.752 994.957 771.759 896.304 771.187 732.802ZM704.812 732.802C705.655 548.325 556.567 461.075 442.935 461.801C325.822 462.55 179.292 546.584 177.352 733.622C182.611 907.339 323.608 997.544 445.727 996.752C568.248 994.957 704.241 896.304 704.812 732.802Z" sodipodi:nodetypes="cczczczccccccccccccccccccccccczczczccccccccccccc"/>
</svg>
