<?xml version="1.0" standalone="no"?>
<!DOCTYPE svg PUBLIC "-//W3C//DTD SVG 20010904//EN" "http://www.w3.org/TR/2001/REC-SVG-20010904/DTD/svg10.dtd">
<!-- Created using Krita: https://krita.org -->
<svg xmlns="http://www.w3.org/2000/svg" 
    xmlns:xlink="http://www.w3.org/1999/xlink"
    xmlns:krita="http://krita.org/namespaces/svg/krita"
    xmlns:sodipodi="http://sodipodi.sourceforge.net/DTD/sodipodi-0.dtd"
    width="1474.56pt"
    height="1474.56pt"
    viewBox="0 0 1474.56 1474.56">
<defs/>
<path id="shape0" transform="translate(1.37117128026941, 370.192900351699)" fill="#ffffff" stroke="#ffffff" stroke-width="0.72" stroke-linecap="square" stroke-linejoin="bevel" d="M729.159 442.057C671.907 414.388 618.508 371.538 609.999 295.807C605.972 240.68 599.799 128.374 550.915 64.0904C509.587 8.9993 452.286 -0.945065 406.329 0.0670746C305.363 0.281043 201.933 88.3223 162.069 104.332C122.205 120.341 88.1986 124.849 68.6488 92.452C63.0694 81.2121 52.9997 47.3933 94.5688 30.352C112.569 27.7045 130.569 29.4011 148.569 48.172C145.957 27.7445 132.564 1.8917 90.2488 3.08208C51.4898 4.25695 -2.18702 19.822 0.0688288 95.1521C2.79142 140.696 43.9447 200.15 133.449 194.062C231.574 188.622 279.031 144.215 346.974 145.732C414.917 147.249 449.826 181.72 461.409 231.727C472.992 281.733 457.529 385.98 516.705 449.087C563.493 498.808 623.553 529.146 685.149 545.827L433.149 759.487L728.259 599.917C728.334 587.812 729.399 531.457 729.159 442.057Z" sodipodi:nodetypes="cccczcccccczzccccc"/><path id="shape1" transform="translate(2.5199999576609, 528.299966341942)" fill="#ffffff" stroke="#ffffff" stroke-width="0.72" stroke-linecap="square" stroke-linejoin="bevel" d="M0 0C24.8297 44.5291 58.8197 71.0791 105.21 83.43C183.577 98.963 216.474 63.772 267.75 47.52C319.026 31.268 367.022 35.0414 403.29 76.68C439.558 118.319 429.351 227.975 463.41 285.75C497.469 343.525 554.906 369.476 637.02 394.02C576.122 402.666 483.931 388.606 441.81 356.58C399.689 324.554 397.086 285.746 382.86 226.35C368.634 166.954 365.377 142.582 340.11 120.24C314.843 97.8977 291.289 97.4187 248.04 104.4C204.791 111.381 173.21 138.462 111.24 128.16C47.8804 117.87 13.3804 78.9902 0 0Z" sodipodi:nodetypes="cczzzczzzzcc"/><path id="shape2" transform="matrix(0.999467979485618 0.0326154671307313 -0.0325120171597016 0.999471344631855 154.159685550974 670.249439897519)" fill="#ffffff" fill-rule="evenodd" stroke="#ffffff" stroke-width="0.72" stroke-linecap="square" stroke-linejoin="bevel" d="M478.708 258.139C408.106 265.54 372.922 274.452 304.347 247.553C235.772 220.655 223.039 148.895 205.58 98.084C188.121 47.2728 167.689 1.5192 114.814 0.057041C61.9383 -1.40512 0.195098 25.175 0.000700424 87.6395C-0.193697 150.104 40.1119 178.137 77.4268 179.44C114.742 180.742 129.247 156.239 128.962 128.11C128.677 99.9817 110.287 90.3689 90.784 89.5902C103.233 98.3256 113.095 101.179 112.014 118.21C110.932 135.241 99.806 141.881 87.7741 141.1C75.7421 140.318 52.5504 129.599 53.521 96.9995C54.4917 64.4 85.7461 46.0699 107.296 49.6641C155.952 58.5848 167.011 127.819 181.647 183.633C196.282 239.446 237.568 295.349 285.781 313.262C333.993 331.176 353.096 325.311 393.366 327.22C406.077 316.206 434.524 293.179 478.708 258.139Z" sodipodi:nodetypes="czzzzzzczzzczzcc"/><path id="shape01" transform="matrix(-1 0 0 1 1473.90882871972 370.192900351699)" fill="#ffffff" stroke="#ffffff" stroke-width="0.72" stroke-linecap="square" stroke-linejoin="bevel" d="M729.159 442.057C671.907 414.388 618.508 371.538 609.999 295.807C605.972 240.68 599.799 128.374 550.915 64.0904C509.587 8.9993 452.286 -0.945065 406.329 0.0670746C305.363 0.281043 201.933 88.3223 162.069 104.332C122.205 120.341 88.1986 124.849 68.6488 92.452C63.0694 81.2121 52.9997 47.3933 94.5688 30.352C112.569 27.7045 130.569 29.4011 148.569 48.172C145.957 27.7445 132.564 1.8917 90.2488 3.08208C51.4898 4.25695 -2.18702 19.822 0.0688288 95.1521C2.79142 140.696 43.9447 200.15 133.449 194.062C231.574 188.622 279.031 144.215 346.974 145.732C414.917 147.249 449.826 181.72 461.409 231.727C472.992 281.733 457.529 385.98 516.705 449.087C563.493 498.808 623.553 529.146 685.149 545.827L433.149 759.487L728.259 599.917C728.424 590.332 727.959 539.737 729.159 442.057Z" sodipodi:nodetypes="cccczcccccczzccccc"/><path id="shape11" transform="matrix(-1 0 0 1 1472.76000004234 528.299966341942)" fill="#ffffff" stroke="#ffffff" stroke-width="0.72" stroke-linecap="square" stroke-linejoin="bevel" d="M0 0C24.8297 44.5291 58.8197 71.0791 105.21 83.43C183.577 98.963 216.474 63.772 267.75 47.52C319.026 31.268 367.022 35.0414 403.29 76.68C439.558 118.319 429.351 227.975 463.41 285.75C497.469 343.525 554.906 369.476 637.02 394.02C576.122 402.666 483.931 388.606 441.81 356.58C399.689 324.554 397.086 285.746 382.86 226.35C368.634 166.954 365.377 142.582 340.11 120.24C314.843 97.8977 291.289 97.4187 248.04 104.4C204.791 111.381 173.21 138.462 111.24 128.16C47.8804 117.87 13.3804 78.9902 0 0Z" sodipodi:nodetypes="cczzzczzzzcc"/><path id="shape3" transform="matrix(-0.999467979485618 0.0326154671307313 0.0325120171597016 0.999471344631855 1321.12031444903 670.249439897519)" fill="#ffffff" fill-rule="evenodd" stroke="#ffffff" stroke-width="0.72" stroke-linecap="square" stroke-linejoin="bevel" d="M478.708 258.139C408.106 265.54 372.922 274.452 304.347 247.553C235.772 220.655 223.039 148.895 205.58 98.084C188.121 47.2728 167.689 1.5192 114.814 0.057041C61.9383 -1.40512 0.195098 25.175 0.000700424 87.6395C-0.193697 150.104 40.1119 178.137 77.4268 179.44C114.742 180.742 129.247 156.239 128.962 128.11C128.677 99.9817 110.287 90.3689 90.784 89.5902C103.233 98.3256 113.095 101.179 112.014 118.21C110.932 135.241 99.806 141.881 87.7741 141.1C75.7421 140.318 52.5504 129.599 53.521 96.9995C54.4917 64.4 85.7461 46.0699 107.296 49.6641C155.952 58.5848 167.011 127.819 181.647 183.633C196.282 239.446 237.568 295.349 285.781 313.262C333.993 331.176 353.096 325.311 393.366 327.22C406.077 316.206 434.524 293.179 478.708 258.139Z" sodipodi:nodetypes="czzzzzzczzzczzcc"/>
</svg>
