<?xml version="1.0" standalone="no"?>
<!DOCTYPE svg PUBLIC "-//W3C//DTD SVG 20010904//EN" "http://www.w3.org/TR/2001/REC-SVG-20010904/DTD/svg10.dtd">
<!-- Created using Krita: https://krita.org -->
<svg xmlns="http://www.w3.org/2000/svg" 
    xmlns:xlink="http://www.w3.org/1999/xlink"
    xmlns:krita="http://krita.org/namespaces/svg/krita"
    xmlns:sodipodi="http://sodipodi.sourceforge.net/DTD/sodipodi-0.dtd"
    width="1474.56pt"
    height="1474.56pt"
    viewBox="0 0 1474.56 1474.56">
<defs/>
<path id="shape0" transform="matrix(2.64292045871692 0.00312114446057229 -0.0031211444605723 2.64292045871692 566.47245488357 -0.336364215545898)" fill="#ffffff" fill-rule="evenodd" stroke="#ffffff" stroke-width="0.24" stroke-linecap="square" stroke-linejoin="bevel" d="M178.409 557.649C210.809 533.649 261.119 463.224 261.359 390.144C261.599 317.064 236.759 256.824 158.759 195.624C80.7593 134.424 69.1193 110.784 68.9993 88.224C68.8793 65.664 85.3193 47.064 110.879 47.544C136.439 48.024 147.839 63.864 147.479 82.344C147.239 94.664 138.919 106.584 122.519 118.104C160.039 110.984 179.519 93.7439 180.959 66.3839C183.119 25.3439 143.687 0.363498 104.807 0.00349805C65.9274 -0.356502 0.599255 27.0239 4.55925 103.704C8.51925 180.384 109.439 230.544 131.999 307.464C154.559 384.384 125.519 433.464 93.4793 459.744C72.1193 477.264 41.3779 487.014 0.437893 488.994L0 558.056Z" sodipodi:nodetypes="czzzzcczzzzzccc"/><path id="shape1" transform="matrix(2.64292045871692 0.00312114446057229 -0.0031211444605723 2.64292045871692 202.2589522326 496.589550364652)" fill="#ffffff" fill-rule="evenodd" stroke="#ffffff" stroke-width="0.24" stroke-linecap="square" stroke-linejoin="bevel" d="M92.4042 0C36.7842 32.58 36.2442 62.1 36.7842 78.48C37.3242 94.86 57.0642 114.9 78.3042 115.08C99.5442 115.26 115.504 105.24 151.384 107.04C187.264 108.84 234.207 137.637 236.044 188.94C234.641 252.483 198.455 277.909 138.227 279.359C138.193 219.167 138.095 279.058 138.197 218.819C158.979 217.13 169.204 207.96 169.624 192.06C170.044 176.16 158.884 165.54 137.164 166.32C115.444 167.1 103.504 175.14 66.9042 171.12C30.3042 167.1 0.304237 138.3 0.00423709 104.94C-0.295763 71.58 15.3642 48.54 37.6842 29.28C52.5642 16.44 70.8042 6.67999 92.4042 0Z" sodipodi:nodetypes="czzzccczzzzcc"/>
</svg>
