<?xml version="1.0" standalone="no"?>
<!DOCTYPE svg PUBLIC "-//W3C//DTD SVG 20010904//EN" "http://www.w3.org/TR/2001/REC-SVG-20010904/DTD/svg10.dtd">
<!-- Created using Krita: https://krita.org -->
<svg xmlns="http://www.w3.org/2000/svg" 
    xmlns:xlink="http://www.w3.org/1999/xlink"
    xmlns:krita="http://krita.org/namespaces/svg/krita"
    xmlns:sodipodi="http://sodipodi.sourceforge.net/DTD/sodipodi-0.dtd"
    width="1474.56pt"
    height="1474.56pt"
    viewBox="0 0 1474.56 1474.56">
<defs/>
<path id="shape0" transform="translate(2.90965200778436, 659.034884380891)" fill="#ffffff" fill-rule="evenodd" stroke="#ffffff" stroke-width="0.72" stroke-linecap="square" stroke-linejoin="bevel" d="M387.091 9.61311C364.379 30.9001 347.805 55.9421 299.883 57.2791C251.961 58.6171 234.354 0.743112 175.161 0.00511227C115.968 -0.732888 103.735 78.6761 73.4835 79.5291C53.3161 80.0981 28.8216 64.6321 0 33.1311C30.6626 100.566 60.5584 133.859 89.6876 133.009C133.381 131.734 133.011 73.3641 172.577 74.0981C212.143 74.8331 234.155 162.176 287.264 171.902C340.372 181.627 362.348 169.42 385.644 146.003C377.645 99.7471 378.127 54.2831 387.091 9.61311Z" sodipodi:nodetypes="czzzczzzcc"/><path id="shape1" transform="matrix(0.998735359645811 0.0502760518850976 -0.0502760518850976 0.998735359645811 335.565910566907 569.536656708849)" fill="#ffffff" fill-rule="evenodd" stroke="#ffffff" stroke-width="0.72" stroke-linecap="square" stroke-linejoin="bevel" d="M89.817 0L0 0.187L69.125 56.962C74.208 37.702 81.134 18.72 89.817 0" sodipodi:nodetypes="cccc"/><path id="shape2" transform="translate(552.599651951334, 352.709996652367)" fill="#ffffff" fill-rule="evenodd" stroke="#ffffff" stroke-width="0.72" stroke-linecap="square" stroke-linejoin="bevel" d="M0 0L3.842 82.172C20.481 72.275 37.932 63.4608 56.371 55.9633L0 0" sodipodi:nodetypes="cccc"/><path id="shape3" transform="matrix(0.999663884652608 0.0259252332922793 -0.0259252332922793 0.999663884652608 365.63971943282 363.018040714565)" fill="#ffffff" fill-rule="evenodd" stroke="#ffffff" stroke-width="0.72" stroke-linecap="square" stroke-linejoin="bevel" d="M0 0L87.935 169.879C105.876 144.582 124.626 119.943 148.961 99.855" sodipodi:nodetypes="ccc"/><path id="shape4" transform="translate(644.221265073855, 1.4696720549501)" fill="#ffffff" fill-rule="evenodd" stroke="#ffffff" stroke-width="0.72" stroke-linecap="square" stroke-linejoin="bevel" d="M165.651 387.091C144.364 364.379 119.322 347.805 117.985 299.883C116.647 251.961 174.521 234.354 175.259 175.161C175.997 115.968 96.5877 103.735 95.7347 73.4835C95.1657 53.3161 110.632 28.8216 142.133 0C74.6977 30.6626 41.4047 60.5584 42.2547 89.6876C43.5297 133.381 101.9 133.011 101.166 172.577C100.431 212.143 13.0877 234.155 3.36169 287.264C-6.36331 340.372 5.84369 362.348 29.2607 385.644C75.5167 377.645 120.981 378.127 165.651 387.091Z" sodipodi:nodetypes="czzzczzzcc"/><path id="shape5" transform="matrix(0.998735359645811 0.0502760518850976 -0.0502760518850976 0.998735359645811 853.545661730646 329.872219637785)" fill="#ffffff" fill-rule="evenodd" stroke="#ffffff" stroke-width="0.72" stroke-linecap="square" stroke-linejoin="bevel" d="M56.962 89.817L56.775 0L0 69.125C19.26 74.208 38.242 81.134 56.962 89.817" sodipodi:nodetypes="cccc"/><path id="shape6" transform="translate(1045.0779633459, 549.71967205495)" fill="#ffffff" fill-rule="evenodd" stroke="#ffffff" stroke-width="0.72" stroke-linecap="square" stroke-linejoin="bevel" d="M82.172 0L0 3.842C9.897 20.481 18.7112 37.932 26.2087 56.371L82.172 0" sodipodi:nodetypes="cccc"/><path id="shape7" transform="matrix(0.999663884652608 0.0259252332922793 -0.0259252332922793 0.999663884652608 947.126684993616 358.381342890432)" fill="#ffffff" fill-rule="evenodd" stroke="#ffffff" stroke-width="0.72" stroke-linecap="square" stroke-linejoin="bevel" d="M0 87.935C25.297 105.876 49.936 124.626 70.024 148.961L169.879 0" sodipodi:nodetypes="ccc"/><path id="shape8" transform="translate(1088.69932520065, 642.781258982015)" fill="#ffffff" fill-rule="evenodd" stroke="#ffffff" stroke-width="0.72" stroke-linecap="square" stroke-linejoin="bevel" d="M0 165.651C22.712 144.364 39.286 119.322 87.208 117.985C135.13 116.647 152.737 174.521 211.93 175.259C271.123 175.997 283.356 96.5877 313.607 95.7347C333.775 95.1657 358.269 110.632 387.091 142.133C356.428 74.6977 326.533 41.4047 297.403 42.2547C253.71 43.5297 254.08 101.9 214.514 101.166C174.948 100.431 152.936 13.0877 99.827 3.36169C46.719 -6.36331 24.743 5.84369 1.447 29.2607C9.446 75.5167 8.964 120.981 0 165.651Z" sodipodi:nodetypes="czzzczzzcc"/><path id="shape9" transform="matrix(0.998735359645811 0.0502760518850976 -0.0502760518850976 0.998735359645811 1059.13828047539 846.136779055827)" fill="#ffffff" fill-rule="evenodd" stroke="#ffffff" stroke-width="0.72" stroke-linecap="square" stroke-linejoin="bevel" d="M0 56.962L89.817 56.775L20.692 0C15.609 19.26 8.683 38.242 0 56.962" sodipodi:nodetypes="cccc"/><path id="shape10" transform="translate(871.16932520065, 1042.19795731051)" fill="#ffffff" fill-rule="evenodd" stroke="#ffffff" stroke-width="0.72" stroke-linecap="square" stroke-linejoin="bevel" d="M56.371 82.172L52.529 0C35.89 9.897 18.439 18.7112 0 26.2087L56.371 82.172" sodipodi:nodetypes="cccc"/><path id="shape11" transform="matrix(0.999663884652608 0.0259252332922793 -0.0259252332922793 0.999663884652608 971.414813328289 940.377921521509)" fill="#ffffff" fill-rule="evenodd" stroke="#ffffff" stroke-width="0.72" stroke-linecap="square" stroke-linejoin="bevel" d="M61.026 0C43.085 25.297 24.335 49.936 0 70.024L148.961 169.879" sodipodi:nodetypes="ccc"/><path id="shape12" transform="translate(660.02493581728, 1087.79932236366)" fill="#ffffff" fill-rule="evenodd" stroke="#ffffff" stroke-width="0.72" stroke-linecap="square" stroke-linejoin="bevel" d="M9.61311 0C30.9001 22.712 55.9421 39.286 57.2791 87.208C58.6171 135.13 0.743112 152.737 0.00511227 211.93C-0.732888 271.123 78.6761 283.356 79.5291 313.608C80.0981 333.775 64.6321 358.269 33.1311 387.091C100.566 356.428 133.859 326.533 133.009 297.403C131.734 253.71 73.3641 254.08 74.0981 214.514C74.8331 174.948 162.176 152.936 171.902 99.827C181.627 46.719 169.42 24.743 146.003 1.447C99.7471 9.446 54.2831 8.964 9.61311 0Z" sodipodi:nodetypes="czzzczzzcc"/><path id="shape13" transform="matrix(0.998735359645811 0.0502760518850976 -0.0502760518850976 0.998735359645811 575.030826980027 1053.88886432979)" fill="#ffffff" fill-rule="evenodd" stroke="#ffffff" stroke-width="0.72" stroke-linecap="square" stroke-linejoin="bevel" d="M0 0L0.187 89.817L56.962 20.692C37.702 15.609 18.72 8.683 0 0" sodipodi:nodetypes="cccc"/><path id="shape14" transform="translate(353.700048088756, 870.26932236366)" fill="#ffffff" fill-rule="evenodd" stroke="#ffffff" stroke-width="0.72" stroke-linecap="square" stroke-linejoin="bevel" d="M0 56.371L82.172 52.529C72.275 35.89 63.4608 18.439 55.9633 0L0 56.371" sodipodi:nodetypes="cccc"/><path id="shape15" transform="matrix(0.999663884652608 0.0259252332922793 -0.0259252332922793 0.999663884652608 369.303001735186 964.684567227736)" fill="#ffffff" fill-rule="evenodd" stroke="#ffffff" stroke-width="0.72" stroke-linecap="square" stroke-linejoin="bevel" d="M169.879 61.026C144.582 43.085 119.943 24.335 99.855 0L0 148.961" sodipodi:nodetypes="ccc"/><ellipse id="shape41" transform="translate(417.622471182217, 417.330760725316)" rx="322.447560661938" ry="322.806633669357" cx="322.447560661938" cy="322.806633669357" fill="#ffffff" fill-rule="evenodd" stroke="#ffffff" stroke-width="0.72" stroke-linecap="square" stroke-linejoin="bevel"/>
</svg>
