<?xml version="1.0" standalone="no"?>
<!DOCTYPE svg PUBLIC "-//W3C//DTD SVG 20010904//EN" "http://www.w3.org/TR/2001/REC-SVG-20010904/DTD/svg10.dtd">
<!-- Created using Krita: https://krita.org -->
<svg xmlns="http://www.w3.org/2000/svg" 
    xmlns:xlink="http://www.w3.org/1999/xlink"
    xmlns:krita="http://krita.org/namespaces/svg/krita"
    xmlns:sodipodi="http://sodipodi.sourceforge.net/DTD/sodipodi-0.dtd"
    width="1474.56pt"
    height="1474.56pt"
    viewBox="0 0 1474.56 1474.56">
<defs/>
<path id="shape0" transform="matrix(0.999511955915509 -0.000150508332671139 0.000154939186078592 0.999999978277935 1.32937418477161 24.1849410076902)" fill="#ffffff" fill-rule="evenodd" stroke="#ffffff" stroke-width="1" stroke-linecap="square" stroke-linejoin="bevel" d="M600.47 300.171C589.173 264.447 588.256 222.763 638.468 185.457C688.681 148.152 733.649 155.735 771.691 134.772C783.598 127.754 803.702 111.418 773.537 86.3533C727.366 49.9874 680.362 45.6517 633.001 45.1083C520.286 42.0228 460.82 83.3431 399.446 126.051C455.947 66.8449 512.843 7.93185 638.799 0.482629C703.839 -1.01852 819.942 -3.77682 934.62 74.5166C996.109 116.78 980.719 169.599 953.302 201.161C926.488 232.922 866.254 228.325 830.353 249.601C817.209 259.67 808.602 287.679 833.878 304.202C1111.43 363.249 1292.26 654.562 1196.84 936.939C1233.83 943.07 1271.45 961.146 1281.98 1022.77C1292.51 1084.38 1265.36 1120.99 1266.83 1164.36C1267.7 1178.15 1273.16 1203.45 1309.2 1187.95C1362.58 1163.32 1387.75 1123.43 1409.7 1081.51C1463.54 982.539 1453.62 910.86 1443.33 836.853C1470.54 913.998 1497.33 991.362 1446.89 1106.89C1418.76 1165.49 1368.6 1270.12 1246.75 1336.75C1181.17 1372.35 1141.01 1334.71 1125.27 1295.99C1109.09 1257.72 1140.49 1206.17 1137.78 1164.56C1134.74 1148.29 1113.65 1127.93 1087.45 1142.95C933.662 1334.21 603.919 1388.72 375.162 1163.69C352.034 1193.19 318.119 1217.49 258.937 1197.17C199.756 1176.86 180.618 1135.51 141.812 1115.99C129.288 1110.14 104.437 1102.8 100.773 1141.82C96.8151 1200.42 119.786 1241.62 146.091 1280.96C207.215 1375.61 274.939 1401.29 344.889 1427.75C264.064 1414.63 183.259 1401.01 105.953 1301.39C67.9722 1248.63 0.107606 1154.49 0 1015.73C0.175655 941.174 52.501 924.023 94.0607 928.793C135.443 932.954 165.672 985.199 203.528 1002.77C219.271 1007.92 247.269 999.191 246.639 969.023C118.368 642.232 313.757 369.372 600.47 300.171Z" sodipodi:nodetypes="czcccccccccczcccccccccczcccccccccc"/>
</svg>
