<?xml version="1.0" standalone="no"?>
<!DOCTYPE svg PUBLIC "-//W3C//DTD SVG 20010904//EN" "http://www.w3.org/TR/2001/REC-SVG-20010904/DTD/svg10.dtd">
<!-- Created using Krita: https://krita.org -->
<svg xmlns="http://www.w3.org/2000/svg" 
    xmlns:xlink="http://www.w3.org/1999/xlink"
    xmlns:krita="http://krita.org/namespaces/svg/krita"
    xmlns:sodipodi="http://sodipodi.sourceforge.net/DTD/sodipodi-0.dtd"
    width="1474.56pt"
    height="1474.56pt"
    viewBox="0 0 1474.56 1474.56">
<defs/>
<path id="shape0" transform="translate(109.619992435668, 130.949991076444)" fill="#ffffff" fill-rule="evenodd" stroke="#ffffff" stroke-width="0.72" stroke-linecap="square" stroke-linejoin="bevel" d="M456.66 613.89C455.343 590.314 443.861 569.357 419.31 556.335C394.759 543.313 343.131 545.492 326.52 579.96C309.909 614.427 306.273 659.05 348.03 695.16C389.787 731.27 457.43 736.011 511.56 709.11C565.69 682.209 608.097 580.979 590.76 451.53C573.423 322.081 478.587 191.45 354.78 110.7C275.68 66.5561 174.874 21.4634 0 0L85.86 294.03C170.207 302.601 263.658 303.173 335.34 338.31C407.022 373.447 481.165 421.083 505.44 486.45C529.715 551.816 518.567 643.457 477.72 664.47C436.873 685.483 399.855 678.341 378.9 666.63C357.944 654.918 344.075 617.417 355.68 597.15C367.285 576.882 382.65 569.113 412.74 577.89C430.333 585.688 444.973 597.688 456.66 613.89Z" sodipodi:nodetypes="czzzzzccczzzzzcc"/><path id="shape1" transform="matrix(-1 0 0 1 1364.22000756433 130.949991076444)" fill="#ffffff" fill-rule="evenodd" stroke="#ffffff" stroke-width="0.72" stroke-linecap="square" stroke-linejoin="bevel" d="M456.66 613.89C455.343 590.314 443.861 569.357 419.31 556.335C394.759 543.313 343.131 545.492 326.52 579.96C309.909 614.427 306.273 659.05 348.03 695.16C389.787 731.27 457.43 736.011 511.56 709.11C565.69 682.209 608.097 580.979 590.76 451.53C573.423 322.081 478.587 191.45 354.78 110.7C275.68 66.5561 174.874 21.4634 0 0L85.86 294.03C170.207 302.601 263.658 303.173 335.34 338.31C407.022 373.447 481.165 421.083 505.44 486.45C529.715 551.816 518.567 643.457 477.72 664.47C436.873 685.483 399.855 678.341 378.9 666.63C357.944 654.918 344.075 617.417 355.68 597.15C367.285 576.882 382.65 569.113 412.74 577.89C430.333 585.688 444.973 597.688 456.66 613.89Z" sodipodi:nodetypes="czzzzzccczzzzzcc"/><path id="shape2" transform="matrix(-1 0 0 1 1473.84860346496 519.048732572045)" fill="#ffffff" fill-rule="evenodd" stroke="#ffffff" stroke-width="0.72" stroke-linecap="square" stroke-linejoin="bevel" d="M979.749 822.311C983.889 802.255 991.886 738.252 1042.57 707.291C1093.25 676.33 1140.93 670.758 1254.97 608.471C1369 546.185 1474.98 381.328 1473.85 243.431C1472.71 105.534 1398.67 25.0516 1326.43 7.45126C1254.19 -10.1491 1227.84 5.02441 1202.05 36.2513C1176.26 67.4781 1190.36 110.016 1239.13 134.711C1221.74 112.374 1210.42 87.1812 1226.17 64.1512C1241.91 41.1212 1270.23 36.1881 1305.37 52.6312C1340.51 69.0743 1366.38 128.279 1348.03 209.591C1304.12 368.651 1203.98 419.171 1148.05 438.911C1064.15 468.522 1012.85 458.596 979.209 442.871C945.572 427.147 856.136 339.455 735.129 340.249C614.122 341.042 528.285 427.147 494.649 442.871C461.012 458.596 409.705 468.522 325.809 438.911C269.878 419.171 169.738 368.651 125.829 209.591C107.481 128.279 126.146 65.4743 164.169 49.0312C202.191 32.5881 233.383 38.9612 249.129 62.7112C264.874 86.4612 252.12 112.374 234.729 134.711C283.501 110.016 288.239 68.1081 268.929 39.8513C249.618 11.5944 209.048 -11.9491 147.429 7.90126C85.8092 27.7516 1.14372 105.534 0.00860347 243.431C-1.12651 381.328 110.255 550.505 218.889 608.471C327.522 666.438 380.606 676.33 431.289 707.291C481.971 738.252 487.898 792.227 494.109 822.311ZM736.209 570.221C611.968 570.68 550.278 585.299 467.289 619.271C521.385 545.94 593.061 448.286 734.049 444.491C875.037 440.696 951.392 545.13 1005.49 618.461C904.965 582.983 860.449 569.762 736.209 570.221Z" sodipodi:nodetypes="czzzzzczzccczzcczzczzzzzcccczcz"/>
</svg>
