<?xml version="1.0" standalone="no"?>
<!DOCTYPE svg PUBLIC "-//W3C//DTD SVG 20010904//EN" "http://www.w3.org/TR/2001/REC-SVG-20010904/DTD/svg10.dtd">
<!-- Created using Krita: https://krita.org -->
<svg xmlns="http://www.w3.org/2000/svg" 
    xmlns:xlink="http://www.w3.org/1999/xlink"
    xmlns:krita="http://krita.org/namespaces/svg/krita"
    xmlns:sodipodi="http://sodipodi.sourceforge.net/DTD/sodipodi-0.dtd"
    width="1474.56pt"
    height="1474.56pt"
    viewBox="0 0 1474.56 1474.56">
<defs/>
<path id="shape0" transform="matrix(1.29400848521078 0 0 1.29400848521078 381.71635396987 0.550752872991718)" fill="#ffffff" fill-rule="evenodd" stroke="#ffffff" stroke-width="0.72" stroke-linecap="square" stroke-linejoin="bevel" d="M268.673 568.583C113.991 523.628 73.1018 416.056 89.104 289.597C105.106 163.137 211.792 17.5087 444.785 13.5796C225.699 -37.7736 23.444 57.2895 1.8355 285.739C-19.7731 514.189 154.26 586.414 268.673 568.583Z" sodipodi:nodetypes="czczc"/><path id="shape1" transform="matrix(-1.29400848521078 0 0 -1.29400848521078 1096.44363502976 1474.00923476229)" fill="#ffffff" fill-rule="evenodd" stroke="#ffffff" stroke-width="0.72" stroke-linecap="square" stroke-linejoin="bevel" d="M268.673 568.583C113.991 523.628 73.1018 416.056 89.104 289.597C105.106 163.137 211.792 17.5087 444.785 13.5796C225.699 -37.7736 23.444 57.2895 1.8355 285.739C-19.7731 514.189 154.26 586.414 268.673 568.583Z" sodipodi:nodetypes="czczc"/><path id="shape2" transform="matrix(0.647004242605391 1.12064422090516 -1.12064422090516 0.647004242605391 1198.42440709341 59.4293669016213)" fill="#ffffff" fill-rule="evenodd" stroke="#ffffff" stroke-width="0.72" stroke-linecap="square" stroke-linejoin="bevel" d="M268.673 568.583C113.991 523.628 73.1018 416.056 89.104 289.597C105.106 163.137 211.792 17.5087 444.785 13.5796C225.699 -37.7736 23.444 57.2895 1.8355 285.739C-19.7731 514.189 154.26 586.414 268.673 568.583Z" sodipodi:nodetypes="czczc"/><path id="shape3" transform="matrix(-0.647004242605391 -1.12064422090516 1.12064422090516 -0.647004242605391 279.73557088557 1415.13059002192)" fill="#ffffff" fill-rule="evenodd" stroke="#ffffff" stroke-width="0.72" stroke-linecap="square" stroke-linejoin="bevel" d="M268.673 568.583C113.991 523.628 73.1018 416.056 89.104 289.597C105.106 163.137 211.792 17.5087 444.785 13.5796C225.699 -37.7736 23.444 57.2895 1.8355 285.739C-19.7731 514.189 154.26 586.414 268.673 568.583Z" sodipodi:nodetypes="czczc"/><path id="shape4" transform="matrix(-0.647004242605391 1.12064422090516 -1.12064422090516 -0.647004242605391 1555.78805816676 796.158595396249)" fill="#ffffff" fill-rule="evenodd" stroke="#ffffff" stroke-width="0.72" stroke-linecap="square" stroke-linejoin="bevel" d="M268.673 568.583C113.991 523.628 73.1018 416.056 89.104 289.597C105.106 163.137 211.792 17.5087 444.785 13.5796C225.699 -37.7736 23.444 57.2895 1.8355 285.739C-19.7731 514.189 154.26 586.414 268.673 568.583Z" sodipodi:nodetypes="czczc"/><path id="shape5" transform="matrix(0.647004242605391 -1.12064422090516 1.12064422090516 0.647004242605391 -77.6280591009684 678.40133662725)" fill="#ffffff" fill-rule="evenodd" stroke="#ffffff" stroke-width="0.72" stroke-linecap="square" stroke-linejoin="bevel" d="M268.673 568.583C113.991 523.628 73.1018 416.056 89.104 289.597C105.106 163.137 211.792 17.5087 444.785 13.5796C225.699 -37.7736 23.444 57.2895 1.8355 285.739C-19.7731 514.189 154.26 586.414 268.673 568.583Z" sodipodi:nodetypes="czczc"/>
</svg>
