<?xml version="1.0" standalone="no"?>
<!DOCTYPE svg PUBLIC "-//W3C//DTD SVG 20010904//EN" "http://www.w3.org/TR/2001/REC-SVG-20010904/DTD/svg10.dtd">
<!-- Created using Krita: https://krita.org -->
<svg xmlns="http://www.w3.org/2000/svg" 
    xmlns:xlink="http://www.w3.org/1999/xlink"
    xmlns:krita="http://krita.org/namespaces/svg/krita"
    xmlns:sodipodi="http://sodipodi.sourceforge.net/DTD/sodipodi-0.dtd"
    width="1474.56pt"
    height="1474.56pt"
    viewBox="0 0 1474.56 1474.56">
<defs/>
<path id="shape0" transform="translate(24.9018897417344, 1.07738652981671)" fill="#ffffff" fill-rule="evenodd" stroke="#ffffff" stroke-width="0.72" stroke-linecap="square" stroke-linejoin="bevel" d="M33.1514 459.108C14.0406 491.172 5.2714 525.733 5.66409e-05 561.137L152.968 665.24C147.318 712.548 146.163 759.856 152.971 807.163L0 911.268C4.54465 947.446 14.582 981.794 33.1513 1013.3L218.193 1007.6C241.516 1048.85 268.985 1087.24 301.665 1122.01C280.761 1180.19 259.857 1238.38 238.953 1296.56C264.291 1325 293.206 1346.05 325.744 1359.62L472.575 1245.88C514.283 1266.31 560.002 1278.72 606.707 1289.15C624.095 1348.71 641.484 1408.26 658.873 1467.81C693.468 1474.93 729.516 1476.02 766.018 1467.81L818.191 1288.67C865.944 1278.96 910.49 1264.72 951.283 1245.18L1099.01 1359.62C1130.23 1343.18 1161.17 1326.17 1185.8 1296.56L1122.44 1120.21C1155.24 1085.6 1182.24 1047.9 1204.24 1007.53L1391.6 1013.3C1410.49 982.028 1420.25 947.568 1424.76 911.268L1269.6 805.673C1275.36 759.359 1275.36 713.045 1269.6 666.73L1424.76 561.137C1419.77 524.432 1409.54 490.058 1391.6 459.108L1204.25 464.874C1181.84 425.427 1155.98 387.319 1122.45 352.178L1185.8 175.846C1162.11 150.635 1134.66 128.431 1099.01 112.789L951.301 227.211C910.325 207.376 865.881 192.99 818.185 183.715L766.018 4.59262C730.258 -0.738293 694.498 -2.27541 658.738 4.59262L606.714 183.227C558.182 191.665 514.396 207.561 472.557 226.515L325.744 112.789C290.491 129.209 262.337 150.794 238.953 175.846L301.66 350.377C267.772 384.952 241.814 424.531 218.416 464.827" sodipodi:nodetypes="cccccccccccccccccccccccccccccccccccccccc"/>
</svg>
