<?xml version="1.0" standalone="no"?>
<!DOCTYPE svg PUBLIC "-//W3C//DTD SVG 20010904//EN" "http://www.w3.org/TR/2001/REC-SVG-20010904/DTD/svg10.dtd">
<!-- Created using Krita: https://krita.org -->
<svg xmlns="http://www.w3.org/2000/svg" 
    xmlns:xlink="http://www.w3.org/1999/xlink"
    xmlns:krita="http://krita.org/namespaces/svg/krita"
    xmlns:sodipodi="http://sodipodi.sourceforge.net/DTD/sodipodi-0.dtd"
    width="1474.56pt"
    height="1474.56pt"
    viewBox="0 0 1474.56 1474.56">
<defs/>
<path id="shape0" transform="translate(0, 738.719996887971)" fill="#ffffff" fill-rule="evenodd" stroke="#ffffff" stroke-width="0.72" stroke-linecap="square" stroke-linejoin="bevel" d="M0 0C24.1036 66.2579 63.4144 174.494 169.2 239.76C274.986 305.026 390.144 288.553 484.02 257.58C413.797 311.122 255.384 357.162 151.74 294.84C48.0963 232.518 2.11682 118.967 0 0Z" sodipodi:nodetypes="czczc"/><path id="shape1" transform="matrix(-1 0 0 -1 1473.84 717.840003112029)" fill="#ffffff" fill-rule="evenodd" stroke="#ffffff" stroke-width="0.72" stroke-linecap="square" stroke-linejoin="bevel" d="M0 0C24.1036 66.2579 63.4144 174.494 169.2 239.76C274.986 305.026 390.144 288.553 484.02 257.58C413.797 311.122 255.384 357.162 151.74 294.84C48.0963 232.518 2.11682 118.967 0 0Z" sodipodi:nodetypes="czczc"/><path id="shape2" transform="matrix(0.5 0.866025403784438 -0.866025403784438 0.5 359.418708110675 95.3085921939854)" fill="#ffffff" fill-rule="evenodd" stroke="#ffffff" stroke-width="0.72" stroke-linecap="square" stroke-linejoin="bevel" d="M0 0C24.1036 66.2579 63.4144 174.494 169.2 239.76C274.986 305.026 390.144 288.553 484.02 257.58C413.797 311.122 255.384 357.162 151.74 294.84C48.0963 232.518 2.11682 118.967 0 0Z" sodipodi:nodetypes="czczc"/><path id="shape3" transform="matrix(-0.5 -0.866025403784438 0.866025403784438 -0.5 1114.4213131515 1361.25147641967)" fill="#ffffff" fill-rule="evenodd" stroke="#ffffff" stroke-width="0.72" stroke-linecap="square" stroke-linejoin="bevel" d="M0 0C24.1036 66.2579 63.4144 174.494 169.2 239.76C274.986 305.026 390.144 288.553 484.02 257.58C413.797 311.122 255.384 357.162 151.74 294.84C48.0963 232.518 2.11682 118.967 0 0Z" sodipodi:nodetypes="czczc"/><path id="shape4" transform="matrix(-0.5 0.866025403784438 -0.866025403784438 -0.5 1096.33868371563 84.8686216662209)" fill="#ffffff" fill-rule="evenodd" stroke="#ffffff" stroke-width="0.72" stroke-linecap="square" stroke-linejoin="bevel" d="M0 0C24.1036 66.2579 63.4144 174.494 169.2 239.76C274.986 305.026 390.144 288.553 484.02 257.58C413.797 311.122 255.384 357.162 151.74 294.84C48.0963 232.518 2.11682 118.967 0 0Z" sodipodi:nodetypes="czczc"/><path id="shape5" transform="matrix(0.5 -0.866025403784438 0.866025403784438 0.5 377.501288756459 1371.69149966785)" fill="#ffffff" fill-rule="evenodd" stroke="#ffffff" stroke-width="0.72" stroke-linecap="square" stroke-linejoin="bevel" d="M0 0C24.1036 66.2579 63.4144 174.494 169.2 239.76C274.986 305.026 390.144 288.553 484.02 257.58C413.797 311.122 255.384 357.162 151.74 294.84C48.0963 232.518 2.11682 118.967 0 0Z" sodipodi:nodetypes="czczc"/>
</svg>
